<svg width="32" height="32" viewBox="0 0 32 32" fill="none" xmlns="http://www.w3.org/2000/svg">
<path d="M26.6 28C23.8222 28 21.0778 27.3947 18.3667 26.184C15.6556 24.9733 13.1889 23.2564 10.9667 21.0333C8.74445 18.8102 7.028 16.3436 5.81733 13.6333C4.60667 10.9231 4.00089 8.17867 4 5.4C4 5 4.13333 4.66667 4.4 4.4C4.66667 4.13333 5 4 5.4 4H10.8C11.1111 4 11.3889 4.10578 11.6333 4.31733C11.8778 4.52889 12.0222 4.77867 12.0667 5.06667L12.9333 9.73333C12.9778 10.0889 12.9667 10.3889 12.9 10.6333C12.8333 10.8778 12.7111 11.0889 12.5333 11.2667L9.3 14.5333C9.74444 15.3556 10.272 16.1498 10.8827 16.916C11.4933 17.6822 12.1658 18.4213 12.9 19.1333C13.5889 19.8222 14.3111 20.4613 15.0667 21.0507C15.8222 21.64 16.6222 22.1787 17.4667 22.6667L20.6 19.5333C20.8 19.3333 21.0613 19.1836 21.384 19.084C21.7067 18.9844 22.0231 18.9564 22.3333 19L26.9333 19.9333C27.2444 20.0222 27.5 20.1836 27.7 20.4173C27.9 20.6511 28 20.912 28 21.2V26.6C28 27 27.8667 27.3333 27.6 27.6C27.3333 27.8667 27 28 26.6 28Z" fill="#1C4266"/>
</svg>
