<svg width="32" height="32" viewBox="0 0 32 32" fill="none" xmlns="http://www.w3.org/2000/svg">
<path d="M15.9999 16C16.7333 16 17.3613 15.7391 17.8839 15.2173C18.4066 14.6956 18.6675 14.0676 18.6666 13.3333C18.6657 12.5991 18.4048 11.9716 17.8839 11.4507C17.363 10.9298 16.735 10.6684 15.9999 10.6667C15.2648 10.6649 14.6373 10.9262 14.1173 11.4507C13.5973 11.9751 13.3359 12.6027 13.3333 13.3333C13.3306 14.064 13.5919 14.692 14.1173 15.2173C14.6426 15.7427 15.2701 16.0036 15.9999 16ZM15.9999 29.3333C12.4221 26.2889 9.75014 23.4613 7.98392 20.8507C6.2177 18.24 5.33414 15.8231 5.33325 13.6C5.33325 10.2667 6.4057 7.61111 8.55059 5.63333C10.6955 3.65556 13.1786 2.66667 15.9999 2.66667C18.8213 2.66667 21.3048 3.65556 23.4506 5.63333C25.5964 7.61111 26.6684 10.2667 26.6666 13.6C26.6666 15.8222 25.7835 18.2391 24.0173 20.8507C22.251 23.4622 19.5786 26.2898 15.9999 29.3333Z" fill="#1C4266"/>
</svg>
