<svg width="32" height="32" viewBox="0 0 32 32" fill="none" xmlns="http://www.w3.org/2000/svg">
<path d="M29.3332 10.0467V22.6667C29.3332 23.6869 28.9434 24.6687 28.2435 25.411C27.5435 26.1533 26.5864 26.6001 25.5678 26.66L25.3332 26.6667H6.6665C5.64622 26.6667 4.66448 26.2769 3.92216 25.577C3.17983 24.877 2.73303 23.9199 2.67317 22.9013L2.6665 22.6667V10.0467L15.2598 18.4427L15.4145 18.5307C15.5968 18.6197 15.797 18.666 15.9998 18.666C16.2027 18.666 16.4029 18.6197 16.5852 18.5307L16.7398 18.4427L29.3332 10.0467Z" fill="#1C4266"/>
<path d="M25.3331 5.33334C26.7731 5.33334 28.0358 6.09334 28.7398 7.23601L15.9998 15.7293L3.25977 7.23601C3.59416 6.69311 4.05349 6.23801 4.59946 5.90866C5.14544 5.57931 5.76224 5.38526 6.39843 5.34268L6.66643 5.33334H25.3331Z" fill="#1C4266"/>
</svg>
