<svg width="32" height="32" viewBox="0 0 32 32" fill="none" xmlns="http://www.w3.org/2000/svg">
<path d="M18.6667 17.3333H25.3334V14.6667H18.6667V17.3333ZM18.6667 13.3333H25.3334V10.6667H18.6667V13.3333ZM6.66675 21.3333H17.3334V20.6C17.3334 19.6 16.8445 18.8058 15.8667 18.2173C14.889 17.6289 13.6001 17.3342 12.0001 17.3333C10.4001 17.3324 9.11119 17.6271 8.13341 18.2173C7.15564 18.8076 6.66675 19.6018 6.66675 20.6V21.3333ZM12.0001 16C12.7334 16 13.3614 15.7391 13.8841 15.2173C14.4067 14.6956 14.6676 14.0676 14.6667 13.3333C14.6659 12.5991 14.405 11.9716 13.8841 11.4507C13.3632 10.9298 12.7352 10.6684 12.0001 10.6667C11.265 10.6649 10.6374 10.9262 10.1174 11.4507C9.59741 11.9751 9.33608 12.6027 9.33342 13.3333C9.33075 14.064 9.59208 14.692 10.1174 15.2173C10.6427 15.7427 11.2703 16.0036 12.0001 16ZM5.33341 26.6667C4.60008 26.6667 3.97253 26.4058 3.45075 25.884C2.92897 25.3622 2.66764 24.7342 2.66675 24V7.99999C2.66675 7.26666 2.92808 6.63911 3.45075 6.11733C3.97341 5.59555 4.60097 5.33422 5.33341 5.33333H26.6667C27.4001 5.33333 28.0281 5.59466 28.5507 6.11733C29.0734 6.63999 29.3343 7.26755 29.3334 7.99999V24C29.3334 24.7333 29.0725 25.3613 28.5507 25.884C28.029 26.4067 27.401 26.6676 26.6667 26.6667H5.33341Z" fill="#1C4266"/>
</svg>
