<svg width="32" height="32" viewBox="0 0 32 32" fill="none" xmlns="http://www.w3.org/2000/svg">
<path d="M25.3334 14.6667H10.4401L16.9467 8.16003C17.4667 7.64003 17.4667 6.7867 16.9467 6.2667C16.8234 6.14309 16.6769 6.04503 16.5156 5.97812C16.3543 5.91121 16.1814 5.87677 16.0067 5.87677C15.8321 5.87677 15.6592 5.91121 15.4979 5.97812C15.3366 6.04503 15.1901 6.14309 15.0667 6.2667L6.28006 15.0534C6.15646 15.1767 6.05839 15.3232 5.99149 15.4845C5.92458 15.6458 5.89014 15.8187 5.89014 15.9934C5.89014 16.168 5.92458 16.3409 5.99149 16.5022C6.05839 16.6635 6.15646 16.81 6.28006 16.9334L15.0667 25.72C15.1902 25.8435 15.3367 25.9414 15.498 26.0082C15.6593 26.075 15.8322 26.1094 16.0067 26.1094C16.1813 26.1094 16.3542 26.075 16.5155 26.0082C16.6767 25.9414 16.8233 25.8435 16.9467 25.72C17.0702 25.5966 17.1681 25.45 17.2349 25.2888C17.3017 25.1275 17.3361 24.9546 17.3361 24.78C17.3361 24.6055 17.3017 24.4326 17.2349 24.2713C17.1681 24.11 17.0702 23.9635 16.9467 23.84L10.4401 17.3334H25.3334C26.0667 17.3334 26.6667 16.7334 26.6667 16C26.6667 15.2667 26.0667 14.6667 25.3334 14.6667Z" fill="white"/>
</svg>
